#define hand_20x32_width 20
#define hand_20x32_height 32
static unsigned char hand_20x32_bits[] = {
   0x00, 0x00, 0x00, 0x00, 0x03, 0x00, 0x80, 0x1c, 0x00, 0xe0, 0x34, 0x00,
   0x90, 0x34, 0x00, 0x9c, 0x24, 0x00, 0x96, 0x24, 0x00, 0x92, 0x24, 0x00,
   0x92, 0x24, 0x00, 0x92, 0x24, 0x00, 0x92, 0x24, 0x00, 0x92, 0x24, 0x00,
   0x92, 0x24, 0x06, 0x92, 0x24, 0x09, 0x92, 0x24, 0x09, 0x93, 0xa4, 0x0d,
   0x01, 0x60, 0x04, 0x01, 0x60, 0x04, 0x01, 0x40, 0x06, 0x01, 0x40, 0x02,
   0x01, 0x00, 0x03, 0x01, 0x00, 0x01, 0x02, 0x00, 0x01, 0x02, 0x00, 0x01,
   0x02, 0x80, 0x00, 0x02, 0x80, 0x00, 0x06, 0x40, 0x00, 0x04, 0x20, 0x00,
   0xf8, 0x1f, 0x00, 0x00, 0x00, 0x00, 0x00, 0x00, 0x00, 0x00, 0x00, 0x00 };
