#define syringe_20x20_width 20
#define syringe_20x20_height 20
static unsigned char syringe_20x20_bits[] = {
   0x00, 0x00, 0x00, 0x06, 0x00, 0x00, 0x0c, 0x00, 0x00, 0x18, 0x00, 0x00,
   0x70, 0x00, 0x00, 0xe0, 0x03, 0x00, 0xc0, 0x07, 0x00, 0xc0, 0x0f, 0x00,
   0xc4, 0x93, 0x00, 0x86, 0xf1, 0x00, 0x8a, 0x60, 0x00, 0x06, 0xbb, 0x00,
   0x00, 0x1e, 0x01, 0x10, 0x0c, 0x01, 0x28, 0x0e, 0x01, 0x28, 0xfb, 0x0f,
   0x10, 0x80, 0x07, 0x00, 0x00, 0x03, 0x00, 0x00, 0x01, 0x00, 0x00, 0x00 };
